# xmcd
#
# Track frame offsets:
# 150
# 11056
# 24972
# 44629
# 60635
# 77601
# 93701
# 106529
# 120170
# 135007
# 149551
# 160997
#
# Disc length: 2402 seconds
#
#
# Revision: 0
# Processed by: cddbd v1.5.2PL0 Copyright (c) Steve Scherf et al.
# Submitted via: FreeRIP 2.945 
#
DISCID=8e09600c
DTITLE=Amanda lear - with love
DYEAR=2006
DGENRE=Pop
TTITLE0=C'est magnifique
TTITLE1=Whatever Lola wants
TTITLE2=Is that all there ist?
TTITLE3=Love for sale
TTITLE4=I'm in the mood for love
TTITLE5=My baby just cares for me
TTITLE6=Si la phono est bonne
TTITLE7=Johnny
TTITLE8=Bambino
TTITLE9=Senza fine
TTITLE10=Kiss me honey kiss me
TTITLE11=Déshabillez-moi
EXTD=
EXTT0=
EXTT1=
EXTT2=
EXTT3=
EXTT4=
EXTT5=
EXTT6=
EXTT7=
EXTT8=
EXTT9=
EXTT10=
EXTT11=
PLAYORDER=
